<svg width="28" height="33" viewBox="0 0 28 33" fill="none" xmlns="http://www.w3.org/2000/svg">
<path fill-rule="evenodd" clip-rule="evenodd" d="M14 0C15.38 0 17.686 0.546562 19.856 1.155C22.076 1.77375 24.314 2.50594 25.63 2.94937C26.1802 3.13676 26.668 3.4804 27.0374 3.94082C27.4067 4.40125 27.6426 4.95978 27.718 5.55225C28.91 14.7861 26.144 21.6294 22.788 26.1566C21.3648 28.0932 19.6679 29.7987 17.754 31.2159C16.982 31.779 16.266 32.2101 15.658 32.505C15.098 32.7772 14.496 33 14 33C13.504 33 12.904 32.7772 12.342 32.505C11.609 32.1376 10.9078 31.7064 10.246 31.2159C8.33202 29.7987 6.63512 28.0933 5.21201 26.1566C1.85601 21.6294 -0.909988 14.7861 0.282011 5.55225C0.35726 4.95949 0.593096 4.40063 0.962435 3.93986C1.33177 3.47908 1.81964 3.13506 2.37001 2.94731C4.28039 2.30136 6.20562 1.70307 8.144 1.15294C10.314 0.548625 12.62 0 14 0ZM14 10.3125C13.2915 10.3114 12.6055 10.5689 12.0635 11.0395C11.5215 11.51 11.1585 12.1631 11.0387 12.8832C10.9189 13.6033 11.0502 14.3439 11.4091 14.9738C11.7681 15.6037 12.3317 16.0822 13 16.3247L12.23 20.4291C12.202 20.5783 12.2063 20.7322 12.2427 20.8795C12.2791 21.0269 12.3466 21.1641 12.4405 21.2814C12.5343 21.3986 12.6522 21.4931 12.7855 21.5579C12.9189 21.6227 13.0646 21.6563 13.212 21.6562H14.788C14.9353 21.656 15.0807 21.6222 15.2138 21.5572C15.3469 21.4923 15.4645 21.3978 15.5581 21.2806C15.6518 21.1633 15.7191 21.0262 15.7554 20.879C15.7917 20.7318 15.796 20.5782 15.768 20.4291L15 16.3247C15.6683 16.0822 16.2319 15.6037 16.5909 14.9738C16.9498 14.3439 17.0811 13.6033 16.9613 12.8832C16.8415 12.1631 16.4785 11.51 15.9365 11.0395C15.3945 10.5689 14.7085 10.3114 14 10.3125Z" fill="#202020"/>
</svg>
