<svg width="25" height="33" viewBox="0 0 25 33" fill="none" xmlns="http://www.w3.org/2000/svg">
<path d="M25 33H0V27.1071C0.0026474 24.9199 0.925369 22.8229 2.56574 21.2763C4.20611 19.7296 6.43017 18.8596 8.75 18.8571H16.25C18.5698 18.8596 20.7939 19.7296 22.4343 21.2763C24.0746 22.8229 24.9974 24.9199 25 27.1071V33ZM21.25 8.25C21.25 9.8817 20.7368 11.4767 19.7754 12.8335C18.8139 14.1902 17.4473 15.2476 15.8485 15.872C14.2496 16.4964 12.4903 16.6598 10.793 16.3415C9.09562 16.0232 7.53653 15.2374 6.31282 14.0836C5.08911 12.9298 4.25575 11.4598 3.91813 9.8595C3.58051 8.25915 3.75379 6.60035 4.41605 5.09286C5.07832 3.58537 6.19983 2.2969 7.63876 1.39038C9.07769 0.483854 10.7694 0 12.5 0C14.8206 0 17.0462 0.869194 18.6872 2.41637C20.3281 3.96354 21.25 6.06196 21.25 8.25Z" fill="#202020"/>
</svg>
