<svg width="35" height="39" viewBox="0 0 35 39" fill="none" xmlns="http://www.w3.org/2000/svg">
<path d="M33.6 0H1.4C0.625625 0 0 0.697125 0 1.56V37.44C0 38.3029 0.625625 39 1.4 39H33.6C34.3744 39 35 38.3029 35 37.44V1.56C35 0.697125 34.3744 0 33.6 0ZM31.85 35.49H3.15V3.51H31.85V35.49ZM16.625 14.04H24.675C24.8675 14.04 25.025 13.8645 25.025 13.65V11.31C25.025 11.0955 24.8675 10.92 24.675 10.92H16.625C16.4325 10.92 16.275 11.0955 16.275 11.31V13.65C16.275 13.8645 16.4325 14.04 16.625 14.04ZM16.625 21.06H24.675C24.8675 21.06 25.025 20.8845 25.025 20.67V18.33C25.025 18.1155 24.8675 17.94 24.675 17.94H16.625C16.4325 17.94 16.275 18.1155 16.275 18.33V20.67C16.275 20.8845 16.4325 21.06 16.625 21.06ZM16.625 28.08H24.675C24.8675 28.08 25.025 27.9045 25.025 27.69V25.35C25.025 25.1355 24.8675 24.96 24.675 24.96H16.625C16.4325 24.96 16.275 25.1355 16.275 25.35V27.69C16.275 27.9045 16.4325 28.08 16.625 28.08ZM9.975 12.48C9.975 12.9972 10.1594 13.4932 10.4876 13.8589C10.8158 14.2246 11.2609 14.43 11.725 14.43C12.1891 14.43 12.6342 14.2246 12.9624 13.8589C13.2906 13.4932 13.475 12.9972 13.475 12.48C13.475 11.9628 13.2906 11.4668 12.9624 11.1011C12.6342 10.7354 12.1891 10.53 11.725 10.53C11.2609 10.53 10.8158 10.7354 10.4876 11.1011C10.1594 11.4668 9.975 11.9628 9.975 12.48V12.48ZM9.975 19.5C9.975 20.0172 10.1594 20.5132 10.4876 20.8789C10.8158 21.2446 11.2609 21.45 11.725 21.45C12.1891 21.45 12.6342 21.2446 12.9624 20.8789C13.2906 20.5132 13.475 20.0172 13.475 19.5C13.475 18.9828 13.2906 18.4868 12.9624 18.1211C12.6342 17.7554 12.1891 17.55 11.725 17.55C11.2609 17.55 10.8158 17.7554 10.4876 18.1211C10.1594 18.4868 9.975 18.9828 9.975 19.5ZM9.975 26.52C9.975 27.0372 10.1594 27.5332 10.4876 27.8989C10.8158 28.2646 11.2609 28.47 11.725 28.47C12.1891 28.47 12.6342 28.2646 12.9624 27.8989C13.2906 27.5332 13.475 27.0372 13.475 26.52C13.475 26.0028 13.2906 25.5068 12.9624 25.1411C12.6342 24.7754 12.1891 24.57 11.725 24.57C11.2609 24.57 10.8158 24.7754 10.4876 25.1411C10.1594 25.5068 9.975 26.0028 9.975 26.52V26.52Z" fill="#202020"/>
</svg>
