<svg width="33" height="27" viewBox="0 0 33 27" fill="none" xmlns="http://www.w3.org/2000/svg">
<path d="M27.8438 0C29.2113 0 30.5228 0.547045 31.4898 1.52079C32.4568 2.49454 33 3.81522 33 5.19231V21.8077C33 23.1848 32.4568 24.5055 31.4898 25.4792C30.5228 26.453 29.2113 27 27.8438 27H5.15625C3.78873 27 2.47722 26.453 1.51023 25.4792C0.543246 24.5055 0 23.1848 0 21.8077V5.19231C0 3.81522 0.543246 2.49454 1.51023 1.52079C2.47722 0.547045 3.78873 0 5.15625 0H27.8438ZM30.9375 8.22669L17.0239 16.4721C16.8923 16.5498 16.7453 16.5973 16.5934 16.6109C16.4414 16.6246 16.2884 16.6041 16.1453 16.551L15.9761 16.4721L2.0625 8.23085V21.8077C2.0625 22.6339 2.38845 23.4264 2.96864 24.0106C3.54883 24.5949 4.33574 24.9231 5.15625 24.9231H27.8438C28.6643 24.9231 29.4512 24.5949 30.0314 24.0106C30.6116 23.4264 30.9375 22.6339 30.9375 21.8077V8.22669ZM27.8438 2.07692H5.15625C4.33574 2.07692 3.54883 2.40515 2.96864 2.9894C2.38845 3.57365 2.0625 4.36606 2.0625 5.19231V5.81954L16.5 14.3723L30.9375 5.81539V5.19231C30.9375 4.36606 30.6116 3.57365 30.0314 2.9894C29.4512 2.40515 28.6643 2.07692 27.8438 2.07692Z" fill="#202020"/>
</svg>
