<svg width="44" height="43" viewBox="0 0 44 43" fill="none" xmlns="http://www.w3.org/2000/svg">
<path d="M43.2 21.2C43.2 9.49156 33.7084 0 22 0C10.2915 0 0.799988 9.49156 0.799988 21.2C0.799988 31.7815 8.55251 40.5521 18.6875 42.1425V27.3281H13.3047V21.2H18.6875V16.5294C18.6875 11.2161 21.8525 8.28126 26.695 8.28126C29.0145 8.28126 31.4406 8.69532 31.4406 8.69532V13.9125H28.7673C26.1338 13.9125 25.3125 15.5467 25.3125 17.2232V21.2H31.1922L30.2523 27.3281H25.3125V42.1425C35.4475 40.5521 43.2 31.7815 43.2 21.2Z" fill="#1877F2"/>
<path d="M30.2522 27.3281L31.1921 21.2H25.3124V17.2232C25.3124 15.5467 26.1337 13.9125 28.7673 13.9125H31.4406V8.6953C31.4406 8.6953 29.0145 8.28125 26.695 8.28125C21.8524 8.28125 18.6874 11.2161 18.6874 16.5294V21.2H13.3046V27.3281H18.6874V42.1425C19.7832 42.3142 20.8908 42.4003 21.9999 42.4C23.1269 42.4 24.2331 42.3118 25.3124 42.1425V27.3281H30.2522Z" fill="white"/>
</svg>
