<svg width="43" height="43" viewBox="0 0 43 43" fill="none" xmlns="http://www.w3.org/2000/svg">
<g clip-path="url(#clip0_1_2385)">
<path fill-rule="evenodd" clip-rule="evenodd" d="M21.8 0C10.087 0 0.600006 9.487 0.600006 21.2C0.600006 30.581 6.66851 38.5045 15.0955 41.3135C16.1555 41.499 16.553 40.863 16.553 40.3065C16.553 39.803 16.5265 38.1335 16.5265 36.358C11.2 37.3385 9.82201 35.0595 9.39801 33.867C9.15951 33.2575 8.12601 31.376 7.22501 30.8725C6.48301 30.475 5.42301 29.4945 7.19851 29.468C8.86801 29.4415 10.0605 31.005 10.458 31.641C12.366 34.8475 15.4135 33.9465 16.6325 33.39C16.818 32.012 17.3745 31.0845 17.984 30.5545C13.267 30.0245 8.33801 28.196 8.33801 20.087C8.33801 17.7815 9.15951 15.8735 10.511 14.3895C10.299 13.8595 9.55701 11.6865 10.723 8.7715C10.723 8.7715 12.4985 8.215 16.553 10.9445C18.249 10.4675 20.051 10.229 21.853 10.229C23.655 10.229 25.457 10.4675 27.153 10.9445C31.2075 8.1885 32.983 8.7715 32.983 8.7715C34.149 11.6865 33.407 13.8595 33.195 14.3895C34.5465 15.8735 35.368 17.755 35.368 20.087C35.368 28.2225 30.4125 30.0245 25.6955 30.5545C26.464 31.217 27.1265 32.489 27.1265 34.4765C27.1265 37.312 27.1 39.591 27.1 40.3065C27.1 40.863 27.4975 41.5255 28.5575 41.3135C36.9315 38.5045 43 30.5545 43 21.2C43 9.487 33.513 0 21.8 0Z" fill="#F1F1F1"/>
</g>
<defs>
<clipPath id="clip0_1_2385">
<rect width="42.4" height="42.4" fill="white" transform="translate(0.600006)"/>
</clipPath>
</defs>
</svg>
