<svg width="63" height="67" viewBox="0 0 63 67" fill="none" xmlns="http://www.w3.org/2000/svg">
<path d="M31.5 0C28.0388 0 24.6554 1.03407 21.7775 2.97146C18.8997 4.90884 16.6566 7.66252 15.3321 10.8843C14.0076 14.106 13.661 17.6511 14.3363 21.0713C15.0115 24.4915 16.6782 27.6332 19.1256 30.099C21.573 32.5648 24.6913 34.2441 28.0859 34.9244C31.4806 35.6047 34.9993 35.2555 38.197 33.921C41.3947 32.5865 44.1278 30.3267 46.0507 27.4272C47.9736 24.5277 49 21.1188 49 17.6316C49 12.9554 47.1563 8.47073 43.8744 5.16417C40.5925 1.85761 36.1413 0 31.5 0ZM31.5 28.2105C29.4233 28.2105 27.3932 27.5901 25.6665 26.4277C23.9398 25.2652 22.594 23.613 21.7993 21.68C21.0045 19.7469 20.7966 17.6198 21.2018 15.5677C21.6069 13.5156 22.6069 11.6306 24.0754 10.1511C25.5438 8.67164 27.4148 7.66409 29.4516 7.2559C31.4884 6.84771 33.5996 7.05721 35.5182 7.85791C37.4368 8.6586 39.0767 10.0145 40.2304 11.7542C41.3842 13.4939 42 15.5393 42 17.6316C42 20.4373 40.8938 23.1281 38.9246 25.112C36.9555 27.096 34.2848 28.2105 31.5 28.2105ZM63 67V63.4737C63 56.927 60.4188 50.6485 55.8241 46.0193C51.2295 41.3901 44.9978 38.7895 38.5 38.7895H24.5C18.0022 38.7895 11.7705 41.3901 7.17588 46.0193C2.58124 50.6485 0 56.927 0 63.4737V67H7V63.4737C7 58.7975 8.84374 54.3128 12.1256 51.0063C15.4075 47.6997 19.8587 45.8421 24.5 45.8421H38.5C43.1413 45.8421 47.5925 47.6997 50.8744 51.0063C54.1563 54.3128 56 58.7975 56 63.4737V67H63Z" fill="#202020"/>
</svg>
