<svg width="33" height="33" viewBox="0 0 33 33" fill="none" xmlns="http://www.w3.org/2000/svg">
<path d="M14.4375 30.25C7.22328 30.25 1.375 24.0939 1.375 16.5C1.375 8.90608 7.22328 2.75 14.4375 2.75C21.6517 2.75 27.5 8.90608 27.5 16.5C27.5 24.0939 21.6517 30.25 14.4375 30.25Z" stroke="black" stroke-width="2" stroke-linecap="round" stroke-linejoin="round"/>
<path d="M17.875 12.1C16.9999 11.3904 15.9079 11.0021 14.7812 11C11.9336 11 9.625 13.4612 9.625 16.5C9.625 19.5388 11.9336 22 14.7812 22C15.9417 22 17.0129 21.5902 17.875 20.9" stroke="black" stroke-width="2" stroke-linecap="round" stroke-linejoin="round"/>
<path d="M13.75 2.75C19.7079 2.75 31.625 4.125 31.625 16.5C31.625 28.875 19.7079 30.25 13.75 30.25" stroke="black" stroke-width="2"/>
</svg>
