<svg width="136" height="48" viewBox="0 0 136 48" fill="none" xmlns="http://www.w3.org/2000/svg">
<g clip-path="url(#clip0_1_2581)">
<path d="M28.0752 16.7003C23.1945 16.7003 19.3809 20.4054 19.3809 25.3654C19.3809 30.3254 23.0981 33.9988 28.0752 33.9988C33.0523 33.9988 36.8342 30.262 36.8342 25.3337C36.8342 20.4371 33.117 16.7003 28.0752 16.7003ZM28.1082 30.4242C25.3287 30.4242 23.292 28.2656 23.292 25.3666C23.292 22.4348 25.2958 20.2774 28.0752 20.2774C30.8876 20.2774 32.9231 22.4677 32.9231 25.3666C32.9231 28.2656 30.8876 30.4242 28.1082 30.4242ZM37.9001 20.47H40.3245V33.678H44.2027V17.0223H37.9001V20.47ZM9.62064 20.2761C11.6573 20.2761 13.2733 21.5323 13.8867 23.4007H17.9918C17.2479 19.4066 13.9514 16.7003 9.65356 16.7003C4.77283 16.7003 0.959229 20.4054 0.959229 25.3666C0.959229 30.3278 4.67649 34 9.65356 34C13.855 34 17.2162 31.2938 17.9601 27.2667H13.8867C13.305 29.1351 11.689 30.4242 9.65236 30.4242C6.84001 30.4242 4.86917 28.2656 4.86917 25.3666C4.8704 22.4348 6.80953 20.2761 9.62064 20.2761ZM111.589 23.7556L108.745 23.3373C107.388 23.1446 106.418 22.6933 106.418 21.6299C106.418 20.47 107.679 19.8907 109.392 19.8907C111.266 19.8907 112.462 20.6957 112.721 22.0165H116.47C116.049 18.6663 113.464 16.7016 109.489 16.7016C105.384 16.7016 102.669 18.7956 102.669 21.7591C102.669 24.5934 104.447 26.2374 108.034 26.7521L110.878 27.1704C112.269 27.3631 113.044 27.9119 113.044 28.9424C113.044 30.2632 111.687 30.8108 109.812 30.8108C107.517 30.8108 106.224 29.8766 106.03 28.4595H102.217C102.573 31.7133 105.126 34 109.779 34C114.014 34 116.825 32.067 116.825 28.7485C116.825 25.7849 114.789 24.2385 111.589 23.7556ZM42.2636 10.161C40.8416 10.161 39.7747 11.1915 39.7747 12.6087C39.7747 14.0258 40.8405 15.0563 42.2636 15.0563C43.6856 15.0563 44.7528 14.0258 44.7528 12.6087C44.7528 11.1915 43.6856 10.161 42.2636 10.161ZM99.1788 22.725C99.1788 19.1175 96.9813 16.7016 92.3272 16.7016C87.9318 16.7016 85.4756 18.9249 84.9903 22.3396H88.8367C89.0306 21.0189 90.0648 19.9237 92.2627 19.9237C94.2348 19.9237 95.2042 20.7932 95.2042 21.8567C95.2042 23.2422 93.426 23.5958 91.2285 23.8215C88.2551 24.1434 84.5707 25.1739 84.5707 29.04C84.5707 32.0365 86.8012 33.9683 90.3566 33.9683C93.1357 33.9683 94.881 32.8085 95.7543 30.9718C95.8837 32.6146 97.1118 33.678 98.8252 33.678H101.088V30.2315H99.18V22.725H99.1788ZM95.3651 26.9131C95.3651 29.1363 93.426 30.7791 91.0661 30.7791C89.6115 30.7791 88.3833 30.1669 88.3833 28.879C88.3833 27.2362 90.3551 26.785 92.1652 26.5923C93.9105 26.4313 94.8798 26.0447 95.3651 25.3032V26.9131ZM74.7776 16.7003C72.6116 16.7003 70.8018 17.6028 69.5092 19.1163V10H65.631V33.678H69.4443V31.4877C70.737 33.0658 72.5801 34 74.7776 34C79.4313 34 82.9548 30.3278 82.9548 25.3666C82.9548 20.4054 79.3668 16.7003 74.7776 16.7003ZM74.196 30.4242C71.4165 30.4242 69.3798 28.2656 69.3798 25.3666C69.3798 22.4677 71.4483 20.2774 74.2275 20.2774C77.04 20.2774 79.0106 22.436 79.0106 25.3666C79.0106 28.2656 76.9751 30.4242 74.196 30.4242ZM56.3546 16.7003C53.8338 16.7003 52.185 17.7309 51.2156 19.1809V17.0223H47.3688V33.6768H51.2471V24.6252C51.2471 22.0799 52.863 20.2761 55.2547 20.2761C57.4852 20.2761 58.8742 21.8543 58.8742 24.1422V33.678H62.7525V23.8531C62.754 19.6639 60.5891 16.7003 56.3546 16.7003ZM135.312 24.8191C135.312 20.0517 131.822 16.7016 127.135 16.7016C122.158 16.7016 118.506 20.4383 118.506 25.3666C118.506 30.5535 122.416 34 127.2 34C131.24 34 134.407 31.6158 135.215 28.2339H131.174C130.593 29.7156 129.171 30.5535 127.263 30.5535C124.774 30.5535 122.899 29.0071 122.48 26.3008H135.311V24.8191H135.312ZM122.707 23.53C123.322 21.2103 125.067 20.0835 127.071 20.0835C129.268 20.0835 130.949 21.3396 131.337 23.53H122.707Z" fill="#E8D7CD"/>
</g>
<defs>
<clipPath id="clip0_1_2581">
<rect width="135" height="48" fill="white" transform="translate(0.959229)"/>
</clipPath>
</defs>
</svg>
