<svg width="172" height="48" viewBox="0 0 172 48" fill="none" xmlns="http://www.w3.org/2000/svg">
<g clip-path="url(#clip0_1_2579)">
<path d="M37.0178 10.8223C34.2572 9.53122 31.3054 8.59289 28.2194 8.05859C27.8404 8.74354 27.3976 9.66481 27.0923 10.3977C23.8118 9.90452 20.5614 9.90452 17.3412 10.3977C17.036 9.66481 16.5832 8.74354 16.2008 8.05859C13.1114 8.59289 10.1563 9.53467 7.39564 10.8292C1.82743 19.2401 0.317977 27.4422 1.0727 35.5278C4.76583 38.2846 8.34492 39.9593 11.8636 41.0552C12.7324 39.86 13.5072 38.5894 14.1747 37.2504C12.9034 36.7675 11.6858 36.1716 10.5353 35.4799C10.8405 35.2538 11.1391 35.0175 11.4275 34.7743C18.4448 38.0552 26.0692 38.0552 33.0027 34.7743C33.2945 35.0175 33.593 35.2538 33.8949 35.4799C32.741 36.175 31.5201 36.7709 30.2488 37.2538C30.9163 38.5894 31.6878 39.8634 32.5599 41.0586C36.082 39.9627 39.6644 38.2881 43.3575 35.5278C44.2431 26.1545 41.8447 18.0278 37.0178 10.8223ZM15.1307 30.5552C13.0242 30.5552 11.2967 28.5894 11.2967 26.1956C11.2967 23.8018 12.9873 21.8326 15.1307 21.8326C17.2742 21.8326 19.0016 23.7983 18.9648 26.1956C18.9681 28.5894 17.2742 30.5552 15.1307 30.5552ZM29.2995 30.5552C27.193 30.5552 25.4655 28.5894 25.4655 26.1956C25.4655 23.8018 27.156 21.8326 29.2995 21.8326C31.4429 21.8326 33.1704 23.7983 33.1335 26.1956C33.1335 28.5894 31.4429 30.5552 29.2995 30.5552Z" fill="#E8D7CD"/>
<path d="M58.2 16.4772H67.3571C69.5646 16.4772 71.4295 16.8299 72.9594 17.532C74.4852 18.234 75.6293 19.2134 76.3875 20.4669C77.1452 21.7203 77.5275 23.1552 77.5275 24.7717C77.5275 26.3538 77.1317 27.7888 76.3402 29.073C75.5486 30.3607 74.3443 31.3778 72.7244 32.1278C71.1044 32.8778 69.0981 33.2545 66.7 33.2545H58.2V16.4772ZM66.6059 28.9908C68.092 28.9908 69.236 28.6107 70.034 27.8538C70.8326 27.0936 71.2319 26.0593 71.2319 24.7477C71.2319 23.5319 70.8759 22.5627 70.165 21.8367C69.4541 21.1107 68.3772 20.7443 66.9379 20.7443H64.0734V28.9908H66.6059Z" fill="#E8D7CD"/>
<path d="M91.2369 33.2341C89.9689 32.8985 88.8248 32.4121 87.8088 31.7717V27.7923C88.577 28.3984 89.6065 28.8985 90.8979 29.2923C92.1893 29.6827 93.4374 29.8779 94.6446 29.8779C95.2082 29.8779 95.6343 29.8026 95.9226 29.6518C96.2113 29.5012 96.3557 29.3197 96.3557 29.1108C96.3557 28.8711 96.2786 28.6724 96.1207 28.5114C95.9629 28.3505 95.6577 28.2169 95.2052 28.1039L92.3874 27.4566C90.7739 27.0731 89.6299 26.5423 88.9494 25.8608C88.2683 25.1827 87.9292 24.2922 87.9292 23.1895C87.9292 22.2614 88.2245 21.4567 88.8219 20.7683C89.4153 20.08 90.2606 19.5491 91.3574 19.1758C92.4547 18.7991 93.7355 18.6108 95.2082 18.6108C96.5229 18.6108 97.7272 18.7546 98.8245 19.0423C99.9213 19.33 100.827 19.6964 101.548 20.145V23.9087C100.81 23.4601 99.9645 23.1074 98.9988 22.8402C98.0359 22.5765 97.0467 22.4464 96.0266 22.4464C94.554 22.4464 93.8197 22.7032 93.8197 23.2135C93.8197 23.4533 93.9337 23.6313 94.1617 23.7512C94.3897 23.871 94.8089 23.9943 95.4163 24.1245L97.7641 24.556C99.2975 24.8265 100.441 25.3026 101.192 25.9806C101.944 26.6587 102.319 27.6622 102.319 28.9909C102.319 30.4464 101.699 31.6005 100.454 32.4567C99.2098 33.3128 97.4455 33.7409 95.1579 33.7409C93.8127 33.7375 92.5049 33.5697 91.2369 33.2341Z" fill="#E8D7CD"/>
<path d="M107.862 32.7305C106.517 32.0592 105.501 31.1483 104.823 29.9976C104.145 28.8469 103.803 27.5524 103.803 26.114C103.803 24.6757 104.155 23.388 104.86 22.2544C105.564 21.1209 106.597 20.2305 107.959 19.5832C109.321 18.9359 110.948 18.614 112.843 18.614C115.191 18.614 117.14 19.1175 118.69 20.1243V24.5113C118.143 24.1277 117.505 23.8161 116.778 23.5763C116.05 23.3366 115.272 23.2167 114.44 23.2167C112.984 23.2167 111.847 23.4873 111.025 24.0318C110.203 24.5763 109.791 25.2852 109.791 26.1654C109.791 27.0284 110.19 27.7339 110.988 28.2887C111.787 28.84 112.944 29.1175 114.463 29.1175C115.245 29.1175 116.016 29.001 116.778 28.7716C117.536 28.5387 118.19 28.2544 118.737 27.9188V32.1619C117.016 33.2167 115.02 33.7441 112.749 33.7441C110.837 33.7373 109.207 33.4017 107.862 32.7305Z" fill="#E8D7CD"/>
<path d="M124.546 32.7307C123.191 32.0595 122.158 31.1417 121.447 29.9739C120.736 28.806 120.377 27.5047 120.377 26.0663C120.377 24.628 120.732 23.3437 121.447 22.217C122.161 21.0903 123.188 20.2067 124.536 19.5663C125.881 18.9259 127.488 18.6074 129.349 18.6074C131.211 18.6074 132.818 18.9259 134.163 19.5663C135.508 20.2067 136.535 21.0835 137.239 22.2033C137.944 23.3232 138.296 24.6074 138.296 26.0629C138.296 27.5013 137.944 28.8027 137.239 29.9704C136.535 31.1382 135.505 32.0561 134.15 32.7273C132.794 33.3985 131.194 33.7341 129.346 33.7341C127.498 33.7341 125.898 33.4019 124.546 32.7307ZM131.681 28.4773C132.251 27.8951 132.54 27.1246 132.54 26.1657C132.54 25.2068 132.254 24.443 131.681 23.878C131.111 23.3095 130.332 23.0252 129.346 23.0252C128.343 23.0252 127.558 23.3095 126.985 23.878C126.415 24.4465 126.129 25.2068 126.129 26.1657C126.129 27.1246 126.415 27.8951 126.985 28.4773C127.555 29.0595 128.343 29.354 129.346 29.354C130.332 29.3506 131.111 29.0595 131.681 28.4773Z" fill="#E8D7CD"/>
<path d="M152.404 19.4978V24.6759C151.807 24.2752 151.035 24.0766 150.079 24.0766C148.828 24.0766 147.862 24.4636 147.191 25.2375C146.517 26.0115 146.181 27.217 146.181 28.8471V33.2581H140.429V19.2341H146.064V23.693C146.376 22.0629 146.883 20.8609 147.58 20.0834C148.275 19.3095 149.173 18.9225 150.267 18.9225C151.095 18.9225 151.807 19.1143 152.404 19.4978Z" fill="#E8D7CD"/>
<path d="M171.517 15.9977V33.2579H165.764V30.1176C165.278 31.2991 164.54 32.1997 163.547 32.8161C162.554 33.4292 161.326 33.7374 159.871 33.7374C158.569 33.7374 157.436 33.4155 156.466 32.7682C155.497 32.121 154.749 31.234 154.222 30.1073C153.699 28.9805 153.434 27.7066 153.434 26.282C153.417 24.8128 153.696 23.4943 154.269 22.3264C154.84 21.1586 155.648 20.2477 156.688 19.5936C157.728 18.9395 158.915 18.6107 160.247 18.6107C162.987 18.6107 164.825 19.8264 165.764 22.2545V15.9977H171.517ZM164.906 28.3813C165.493 27.7991 165.785 27.0422 165.785 26.1176C165.785 25.2237 165.499 24.4942 164.929 23.936C164.359 23.3778 163.577 23.097 162.594 23.097C161.625 23.097 160.851 23.3812 160.27 23.9497C159.689 24.5183 159.401 25.2545 159.401 26.1655C159.401 27.0765 159.689 27.8196 160.27 28.3949C160.851 28.9703 161.615 29.2579 162.571 29.2579C163.54 29.2546 164.318 28.9634 164.906 28.3813Z" fill="#E8D7CD"/>
<path d="M82.3753 20.7269C83.959 20.7269 85.2433 19.5494 85.2433 18.0968C85.2433 16.6442 83.959 15.4667 82.3753 15.4667C80.791 15.4667 79.5072 16.6442 79.5072 18.0968C79.5072 19.5494 80.791 20.7269 82.3753 20.7269Z" fill="#E8D7CD"/>
<path d="M79.5047 22.5388C81.262 23.3127 83.4426 23.347 85.2402 22.5388V33.3333H79.5047V22.5388Z" fill="#E8D7CD"/>
</g>
<defs>
<clipPath id="clip0_1_2579">
<rect width="171.068" height="48" fill="white" transform="translate(0.891602)"/>
</clipPath>
</defs>
</svg>
