<svg width="136" height="48" viewBox="0 0 136 48" fill="none" xmlns="http://www.w3.org/2000/svg">
<g clip-path="url(#clip0_1_2585)">
<path fill-rule="evenodd" clip-rule="evenodd" d="M18.3892 5C8.75915 5 0.959229 12.7999 0.959229 22.43C0.959229 30.1428 5.94856 36.6572 12.877 38.9667C13.7485 39.1192 14.0753 38.5963 14.0753 38.1388C14.0753 37.7248 14.0535 36.3522 14.0535 34.8924C9.67423 35.6986 8.54128 33.8249 8.19268 32.8444C7.99659 32.3433 7.14688 30.7964 6.4061 30.3824C5.79605 30.0556 4.92455 29.2495 6.38431 29.2277C7.75693 29.2059 8.73736 30.4914 9.06418 31.0143C10.6329 33.6506 13.1384 32.9098 14.1407 32.4522C14.2932 31.3193 14.7507 30.5567 15.2518 30.121C11.3737 29.6852 7.32118 28.1819 7.32118 21.5149C7.32118 19.6194 7.99659 18.0507 9.10775 16.8306C8.93345 16.3949 8.3234 14.6083 9.28205 12.2117C9.28205 12.2117 10.7418 11.7541 14.0753 13.9982C15.4697 13.6061 16.9513 13.41 18.4328 13.41C19.9144 13.41 21.3959 13.6061 22.7903 13.9982C26.1238 11.7323 27.5835 12.2117 27.5835 12.2117C28.5422 14.6083 27.9321 16.3949 27.7578 16.8306C28.869 18.0507 29.5444 19.5976 29.5444 21.5149C29.5444 28.2037 25.4702 29.6852 21.592 30.121C22.2238 30.6657 22.7685 31.7115 22.7685 33.3455C22.7685 35.6768 22.7467 37.5505 22.7467 38.1388C22.7467 38.5963 23.0735 39.141 23.945 38.9667C27.4052 37.7986 30.4119 35.5748 32.542 32.6083C34.6721 29.6418 35.8183 26.082 35.8192 22.43C35.8192 12.7999 28.0193 5 18.3892 5Z" fill="#E8D7CD"/>
<path d="M82.215 30.843H82.1743C82.1926 30.843 82.2048 30.8633 82.2231 30.8654H82.2353L82.215 30.845V30.843ZM82.2231 30.8654C82.034 30.8674 81.5581 30.9671 81.0559 30.9671C79.4697 30.9671 78.9207 30.235 78.9207 29.2793V22.9124H82.154C82.337 22.9124 82.4793 22.7497 82.4793 22.526V19.0691C82.4793 18.886 82.3166 18.7234 82.154 18.7234H78.9207V14.4327C78.9207 14.27 78.819 14.1683 78.636 14.1683H74.2437C74.0606 14.1683 73.959 14.27 73.959 14.4327V18.8454C73.959 18.8454 71.7424 19.3944 71.6001 19.4147C71.4374 19.4554 71.3357 19.5978 71.3357 19.7604V22.526C71.3357 22.7497 71.4984 22.9124 71.6814 22.9124H73.9386V29.5822C73.9386 34.544 77.3956 35.0524 79.7544 35.0524C80.8322 35.0524 82.1336 34.7067 82.337 34.605C82.459 34.5643 82.52 34.422 82.52 34.2796V31.2294C82.5228 31.1429 82.4943 31.0582 82.4398 30.991C82.3853 30.9238 82.3083 30.8785 82.2231 30.8633V30.8654ZM130.409 26.3896C130.409 22.709 128.924 22.221 127.359 22.3837C126.139 22.465 125.162 23.075 125.162 23.075V30.233C125.162 30.233 126.159 30.9244 127.643 30.965C129.738 31.026 130.409 30.2736 130.409 26.3896ZM135.35 26.0643C135.35 33.0392 133.093 35.032 129.148 35.032C125.813 35.032 124.024 33.3442 124.024 33.3442C124.024 33.3442 123.942 34.2796 123.841 34.4016C123.78 34.5236 123.678 34.5643 123.556 34.5643H120.546C120.343 34.5643 120.16 34.4016 120.16 34.2186L120.201 11.6264C120.201 11.4434 120.363 11.2808 120.546 11.2808H124.878C125.061 11.2808 125.223 11.4434 125.223 11.6264V19.2927C125.223 19.2927 126.891 18.215 129.331 18.215L129.311 18.1743C131.751 18.1743 135.35 19.0894 135.35 26.0643ZM117.618 18.7234H113.348C113.124 18.7234 113.002 18.886 113.002 19.1097V30.172C113.002 30.172 111.884 30.965 110.359 30.965C108.833 30.965 108.386 30.2736 108.386 28.7485V19.0894C108.386 18.9064 108.223 18.7437 108.04 18.7437H103.689C103.506 18.7437 103.343 18.9064 103.343 19.0894V29.4806C103.343 33.9543 105.844 35.0727 109.281 35.0727C112.107 35.0727 114.405 33.5069 114.405 33.5069C114.405 33.5069 114.507 34.3 114.568 34.422C114.609 34.5236 114.751 34.605 114.893 34.605H117.618C117.842 34.605 117.964 34.4423 117.964 34.2593L118.005 19.0691C118.005 18.886 117.842 18.7234 117.618 18.7234ZM69.4243 18.703H65.0929C64.9099 18.703 64.7472 18.886 64.7472 19.1097V34.0356C64.7472 34.4423 65.0116 34.5847 65.3573 34.5847H69.2616C69.6683 34.5847 69.7699 34.4016 69.7699 34.0356V19.0487C69.7699 18.8657 69.6073 18.703 69.4243 18.703ZM67.2891 11.8298C65.7233 11.8298 64.4829 13.0702 64.4829 14.636C64.4829 16.2018 65.7233 17.4423 67.2891 17.4423C68.8142 17.4423 70.0546 16.2018 70.0546 14.636C70.0546 13.0702 68.8142 11.8298 67.2891 11.8298ZM100.821 11.3214H96.5308C96.3478 11.3214 96.1851 11.4841 96.1851 11.6671V19.9841H89.4542V11.6671C89.4542 11.4841 89.2915 11.3214 89.1085 11.3214H84.7772C84.5942 11.3214 84.4315 11.4841 84.4315 11.6671V34.2593C84.4315 34.4423 84.6145 34.605 84.7772 34.605H89.1085C89.2915 34.605 89.4542 34.4423 89.4542 34.2593V24.6002H96.1851L96.1444 34.2593C96.1444 34.4423 96.3071 34.605 96.4901 34.605H100.821C101.005 34.605 101.167 34.4423 101.167 34.2593V11.6671C101.167 11.4841 101.005 11.3214 100.821 11.3214ZM62.4494 21.3262V32.9985C62.4494 33.0799 62.429 33.2222 62.3273 33.2629C62.3273 33.2629 59.7855 35.0727 55.5965 35.0727C50.533 35.0727 44.5342 33.4866 44.5342 23.0344C44.5342 12.5822 49.7806 10.4267 54.9051 10.447C59.3381 10.447 61.1276 11.4434 61.4123 11.6264C61.4936 11.7281 61.5343 11.8095 61.5343 11.9111L60.6802 15.5308C60.6802 15.7138 60.4972 15.9375 60.2735 15.8765C59.5414 15.6528 58.4434 15.2054 55.8608 15.2054C52.8716 15.2054 49.6586 16.0595 49.6586 22.7904C49.6586 29.5212 52.7089 30.3143 54.9051 30.3143C56.7759 30.3143 57.4469 30.0906 57.4469 30.0906V25.4136H54.4577C54.234 25.4136 54.0713 25.2509 54.0713 25.0679V21.3262C54.0713 21.1432 54.234 20.9805 54.4577 20.9805H62.063C62.2867 20.9805 62.4494 21.1432 62.4494 21.3262Z" fill="#E8D7CD"/>
</g>
<defs>
<clipPath id="clip0_1_2585">
<rect width="135" height="48" fill="white" transform="translate(0.959229)"/>
</clipPath>
</defs>
</svg>
