<svg width="141" height="48" viewBox="0 0 141 48" fill="none" xmlns="http://www.w3.org/2000/svg">
<g clip-path="url(#clip0_1_2583)">
<path d="M22.0319 3.0791C10.4339 3.0791 1.03149 12.4813 1.03149 24.0792C1.03149 35.6777 10.4339 45.0791 22.0319 45.0791C33.6311 45.0791 43.0325 35.6777 43.0325 24.0792C43.0325 12.482 33.6311 3.0801 22.0316 3.0801L22.0319 3.0791V3.0791ZM31.6625 33.3673C31.2864 33.9842 30.4789 34.1798 29.862 33.8011C24.9313 30.7894 18.7242 30.1073 11.4142 31.7774C10.7098 31.9379 10.0076 31.4966 9.84713 30.7919C9.68588 30.0872 10.1255 29.3851 10.8317 29.2246C18.8313 27.3969 25.6931 28.1839 31.2287 31.5668C31.8456 31.9454 32.0412 32.7504 31.6625 33.3673V33.3673ZM34.2329 27.6492C33.759 28.4196 32.7509 28.6628 31.981 28.1889C26.3361 24.7192 17.7314 23.7144 11.0546 25.7411C10.1887 26.0026 9.27411 25.5146 9.0113 24.6502C8.7505 23.7843 9.23876 22.8715 10.1032 22.6082C17.7299 20.2941 27.2113 21.415 33.6938 25.3985C34.4636 25.8725 34.7069 26.8806 34.2329 27.6495V27.6492ZM34.4536 21.6949C27.6853 17.6748 16.5184 17.3051 10.0563 19.2664C9.01858 19.5811 7.9212 18.9953 7.60673 17.9576C7.29226 16.9194 7.87756 15.8228 8.91601 15.5073C16.3341 13.2554 28.6658 13.6905 36.4583 18.3165C37.3937 18.8704 37.6996 20.0759 37.1454 21.008C36.5937 21.9414 35.385 22.2491 34.4546 21.6949H34.4536ZM58.1666 22.4653C54.5404 21.6006 53.8959 20.9937 53.8959 19.7186C53.8959 18.5139 55.0294 17.7031 56.7171 17.7031C58.3522 17.7031 59.9722 18.3187 61.6724 19.5861C61.7225 19.6245 61.7877 19.6398 61.8504 19.6298C61.9156 19.6203 61.9708 19.5854 62.0084 19.533L63.7789 17.0373C63.8516 16.9345 63.8315 16.7928 63.7337 16.7143C61.71 15.0911 59.433 14.3019 56.7698 14.3019C52.8552 14.3019 50.1193 16.6514 50.1193 20.013C50.1193 23.6178 52.4791 24.8942 56.5566 25.8795C60.0248 26.6787 60.6116 27.3483 60.6116 28.545C60.6116 29.8716 59.428 30.6966 57.5221 30.6966C55.4056 30.6966 53.6778 29.9819 51.7468 28.3118C51.6992 28.2691 51.634 28.2516 51.5738 28.2541C51.5086 28.2591 51.4509 28.2892 51.4108 28.3368L49.4247 30.6991C49.3419 30.7994 49.352 30.9449 49.4473 31.0301C51.6942 33.0363 54.4577 34.0945 57.4419 34.0945C61.6598 34.0945 64.3857 31.79 64.3857 28.2215C64.3933 25.2105 62.5902 23.5428 58.1741 22.4685L58.1666 22.4653V22.4653ZM73.9301 18.8893C72.102 18.8893 70.6024 19.6095 69.3636 21.0853V19.4242C69.3636 19.293 69.2582 19.1862 69.1278 19.1862H65.8803C65.7499 19.1862 65.6446 19.293 65.6446 19.4242V37.8812C65.6446 38.0116 65.7499 38.1194 65.8803 38.1194H69.1278C69.2582 38.1194 69.3636 38.0116 69.3636 37.8812V32.0558C70.6024 33.4425 72.102 34.1221 73.9301 34.1221C77.3281 34.1221 80.7687 31.5066 80.7687 26.5064C80.7737 21.5053 77.3331 18.889 73.9326 18.889L73.9301 18.8893ZM76.992 26.5064C76.992 29.0515 75.4247 30.8295 73.1778 30.8295C70.9585 30.8295 69.2833 28.9713 69.2833 26.5064C69.2833 24.0414 70.9585 22.1836 73.1778 22.1836C75.3871 22.1834 76.992 24.001 76.992 26.5062V26.5064ZM89.5833 18.8893C85.2073 18.8893 81.7793 22.2586 81.7793 26.5609C81.7793 30.817 85.1848 34.1497 89.5306 34.1497C93.9216 34.1497 97.3597 30.7919 97.3597 26.5064C97.3597 22.2356 93.9442 18.8898 89.5833 18.8898V18.8893V18.8893ZM89.5833 30.8546C87.2561 30.8546 85.5007 28.9838 85.5007 26.5052C85.5007 24.0153 87.1959 22.2085 89.5306 22.2085C91.8728 22.2085 93.6383 24.0785 93.6383 26.5596C93.6383 29.049 91.933 30.8546 89.5833 30.8546V30.8546ZM106.703 19.1862H103.13V15.5334C103.13 15.4025 103.025 15.2957 102.894 15.2957H99.6468C99.5164 15.2957 99.4085 15.4025 99.4085 15.5334V19.1862H97.8487C97.7183 19.1862 97.613 19.293 97.613 19.4242V22.2145C97.613 22.3454 97.7183 22.4525 97.8487 22.4525H99.4085V29.6734C99.4085 32.5899 100.86 34.0695 103.727 34.0695C104.89 34.0695 105.856 33.8287 106.766 33.3121C106.841 33.272 106.887 33.1918 106.887 33.1065V30.4483C106.887 30.3681 106.844 30.2903 106.774 30.2477C106.703 30.2026 106.616 30.2001 106.543 30.2377C105.919 30.5511 105.314 30.6966 104.637 30.6966C103.596 30.6966 103.13 30.2226 103.13 29.1644V22.4537H106.703C106.834 22.4537 106.939 22.3469 106.939 22.2157V19.4257C106.944 19.2945 106.839 19.1877 106.706 19.1877L106.703 19.1862V19.1862ZM119.152 19.2005V18.7518C119.152 17.432 119.658 16.8435 120.792 16.8435C121.469 16.8435 122.013 16.9779 122.622 17.181C122.698 17.2046 122.775 17.1928 122.836 17.1479C122.898 17.103 122.933 17.031 122.933 16.9548V14.2189C122.933 14.1143 122.868 14.0218 122.765 13.9909C122.123 13.7996 121.301 13.6032 120.067 13.6032C117.07 13.6032 115.483 15.2919 115.483 18.485V19.1721H113.923C113.793 19.1721 113.685 19.279 113.685 19.4099V22.2145C113.685 22.3454 113.793 22.4525 113.923 22.4525H115.483V33.588C115.483 33.7209 115.591 33.8262 115.721 33.8262H118.966C119.099 33.8262 119.204 33.7209 119.204 33.588V22.4532H122.236L126.881 33.588C126.354 34.7566 125.835 34.9898 125.128 34.9898C124.556 34.9898 123.952 34.8193 123.337 34.4807C123.279 34.4506 123.209 34.4456 123.149 34.4632C123.086 34.4858 123.034 34.5309 123.009 34.5911L121.908 37.006C121.855 37.1214 121.9 37.2543 122.011 37.3145C123.159 37.9364 124.195 38.2022 125.476 38.2022C127.874 38.2022 129.2 37.0837 130.366 34.0795L135.999 19.5255C136.029 19.4522 136.019 19.3695 135.974 19.3045C135.931 19.2401 135.858 19.2012 135.78 19.2012H132.4C132.297 19.2012 132.207 19.2657 132.174 19.3607L128.711 29.2496L124.92 19.3542C124.884 19.2622 124.797 19.2012 124.699 19.2012H119.152V19.2005V19.2005ZM111.935 19.1862H108.687C108.557 19.1862 108.449 19.293 108.449 19.4242V33.588C108.449 33.7209 108.557 33.8262 108.687 33.8262H111.935C112.065 33.8262 112.173 33.7209 112.173 33.588V19.4252C112.173 19.294 112.067 19.1872 111.935 19.1872V19.1862ZM110.33 12.7366C109.043 12.7366 108 13.7778 108 15.064C108 16.3509 109.043 17.3934 110.33 17.3934C111.616 17.3934 112.657 16.3509 112.657 15.064C112.657 13.778 111.614 12.7366 110.33 12.7366ZM138.772 23.7404C137.488 23.7404 136.488 22.7085 136.488 21.4554C136.488 20.2023 137.501 19.1586 138.785 19.1586C140.069 19.1586 141.069 20.1903 141.069 21.4424C141.069 22.6955 140.056 23.7404 138.772 23.7404ZM138.785 19.3858C137.614 19.3858 136.728 20.3161 136.728 21.4554C136.728 22.5942 137.609 23.512 138.772 23.512C139.943 23.512 140.829 22.5824 140.829 21.4424C140.829 20.3036 139.948 19.3858 138.785 19.3858V19.3858ZM139.291 21.6773L139.938 22.5821H139.392L138.81 21.7521H138.311V22.5821H137.854V20.1837H138.923C139.482 20.1837 139.848 20.4689 139.848 20.9488C139.851 21.3421 139.622 21.5823 139.294 21.6773H139.291ZM138.905 20.5953H138.311V21.3538H138.905C139.201 21.3538 139.379 21.2086 139.379 20.9742C139.379 20.7274 139.201 20.5953 138.905 20.5953V20.5953Z" fill="#E8D7CD"/>
</g>
<defs>
<clipPath id="clip0_1_2583">
<rect width="140" height="48" fill="white" transform="translate(0.959229)"/>
</clipPath>
</defs>
</svg>
