<svg width="105" height="48" viewBox="0 0 105 48" fill="none" xmlns="http://www.w3.org/2000/svg">
<g clip-path="url(#clip0_1_2589)">
<path fill-rule="evenodd" clip-rule="evenodd" d="M101.348 18.7236L97.2391 14.621H89.6062V9.3443H83.1473V33.3796H89.6062V21.0682H94.8891V33.3796H101.348V18.7236ZM80.8005 14.621H70.8202L66.7105 18.7236V29.2752L70.8202 33.3796H80.8005V26.9318H73.1676V21.0682H80.8005V14.621V14.621ZM64.3622 14.621H59.0793V9.3443H52.6204V29.2752L56.7302 33.3796H64.3622V26.9318H59.0793V21.0682H64.3622V14.621V14.621ZM50.2721 9.3443H43.815V12.2764H50.2721V9.3443ZM50.2721 14.621H43.815V33.3793H50.2721V14.621V14.621ZM41.4667 14.621H35.009V26.9318H32.6613V14.621H26.2033V26.9318H23.8559V14.621H17.397V33.3796H37.3579L41.4667 29.2752V14.621V14.621ZM15.0487 14.621H9.76555V9.3443H3.30782V29.2752L7.41725 33.3796H15.0487V26.9318H9.76555V21.0682H15.0487V14.621V14.621ZM103.694 17.551V35.1373L94.8891 41H89.0188V38.0679L84.9093 41H79.6265V38.0679L76.692 41H67.2985L64.3622 38.0679L63.7744 41H55.5568L52.1962 38.0679L52.008 41H42.6934L42.364 38.0679L39.8426 41H25.6155L22.6798 39.8274V41H15.0487L6.24235 35.7227L0.959229 30.4493V7H12.1141L17.397 12.2764H41.4667V7H61.4267V12.2764H66.7105V15.2067L69.6468 12.2764H75.5162L80.8005 7H91.9545V12.2764H98.4125L103.694 17.551Z" fill="#E8D7CD"/>
</g>
<defs>
<clipPath id="clip0_1_2589">
<rect width="103.149" height="48" fill="white" transform="translate(0.959229)"/>
</clipPath>
</defs>
</svg>
