<svg width="99" height="48" viewBox="0 0 99 48" fill="none" xmlns="http://www.w3.org/2000/svg">
<g clip-path="url(#clip0_1_2587)">
<path fill-rule="evenodd" clip-rule="evenodd" d="M80.6665 20.5972C81.0407 21.2429 81.1631 21.9774 81.2036 22.8032L81.2567 23.9039V31.6007L81.311 32.7025C81.4195 34.502 82.7466 35.8325 84.5599 35.9457L85.656 36V23.9039L85.7103 22.8032C85.7553 21.9867 85.8766 21.2382 86.2566 20.588C86.6438 19.921 87.1996 19.3677 87.8683 18.9835C88.537 18.5993 89.295 18.3978 90.0662 18.3992C90.8374 18.4006 91.5947 18.6049 92.262 18.9915C92.9293 19.3781 93.4831 19.9335 93.8679 20.6018C94.2421 21.2475 94.3587 21.9959 94.4038 22.8032L94.4581 23.9005V31.6007L94.5124 32.7025C94.6255 34.5112 95.9422 35.8418 97.7613 35.9457L98.8574 36V22.8032C98.8574 20.4697 97.9306 18.2317 96.2809 16.5813C94.6311 14.9309 92.3935 14.0032 90.0599 14.0023C88.8109 14.001 87.5761 14.2662 86.4378 14.7803C85.2995 15.2944 84.284 16.0454 83.4592 16.9833C82.634 16.0458 81.6185 15.2949 80.4803 14.7807C79.3422 14.2665 78.1075 14.0007 76.8585 14.0012C75.0314 14.0012 73.3359 14.5555 71.9314 15.513C71.0744 14.5567 69.1571 14.0012 68.0565 14.0012V36L69.1571 35.9457C70.9982 35.8244 72.3287 34.5297 72.4003 32.7025L72.4592 31.6007V23.9039L72.5135 22.8032C72.5597 21.9728 72.6752 21.2429 73.0506 20.5926C73.4381 19.9261 73.9937 19.3728 74.6619 18.9882C75.3301 18.6035 76.0875 18.4009 76.8585 18.4005C77.6301 18.4006 78.3881 18.6037 79.0565 18.9893C79.7249 19.3748 80.2801 19.9294 80.6665 20.5972V20.5972ZM5.35854 35.9469L6.45923 36H22.9581L22.9038 34.9028C22.7548 33.0941 21.4739 31.7728 19.6595 31.655L18.5588 31.6007H8.66061L21.8574 18.3993L21.8031 17.3032C21.7176 15.4761 20.3825 14.1559 18.5588 14.0554L17.4581 14.0058L0.959229 14.0012L1.01351 15.1019C1.15788 16.8932 2.45723 18.2422 4.25669 18.3462L5.35854 18.4005H15.2567L2.05992 31.6018L2.11421 32.7025C2.22277 34.5159 3.53136 35.8291 5.35854 35.9457V35.9469ZM63.738 17.2212C64.7596 18.2426 65.57 19.4552 66.1229 20.7898C66.6757 22.1244 66.9603 23.5548 66.9603 24.9994C66.9603 26.444 66.6757 27.8744 66.1229 29.209C65.57 30.5436 64.7596 31.7562 63.738 32.7776C61.6741 34.8399 58.8757 35.9983 55.9581 35.9983C53.0404 35.9983 50.2421 34.8399 48.1781 32.7776C43.8828 28.4823 43.8828 21.5166 48.1781 17.2212C49.1988 16.2002 50.4106 15.3902 51.7443 14.8375C53.078 14.2848 54.5075 14.0002 55.9511 14C57.3972 13.999 58.8292 14.2831 60.1654 14.836C61.5015 15.3889 62.7155 16.1999 63.738 17.2224V17.2212ZM60.6253 20.3362C61.8626 21.5744 62.5575 23.2531 62.5575 25.0035C62.5575 26.7538 61.8626 28.4326 60.6253 29.6707C59.3872 30.908 57.7084 31.6029 55.9581 31.6029C54.2077 31.6029 52.529 30.908 51.2908 29.6707C50.0536 28.4326 49.3586 26.7538 49.3586 25.0035C49.3586 23.2531 50.0536 21.5744 51.2908 20.3362C52.529 19.099 54.2077 18.404 55.9581 18.404C57.7084 18.404 59.3872 19.099 60.6253 20.3362V20.3362ZM32.8655 14C34.3092 14.0004 35.7388 14.2851 37.0725 14.8381C38.4062 15.391 39.6179 16.2012 40.6385 17.2224C44.935 21.5166 44.935 28.4834 40.6385 32.7776C38.5745 34.8399 35.7762 35.9983 32.8585 35.9983C29.9409 35.9983 27.1426 34.8399 25.0786 32.7776C20.7833 28.4823 20.7833 21.5166 25.0786 17.2212C26.0993 16.2002 27.311 15.3902 28.6447 14.8375C29.9784 14.2848 31.4079 14.0002 32.8516 14H32.8655ZM37.5258 20.3339C38.7634 21.5721 39.4586 23.2511 39.4586 25.0017C39.4586 26.7524 38.7634 28.4314 37.5258 29.6696C36.2876 30.9068 34.6089 31.6018 32.8585 31.6018C31.1082 31.6018 29.4294 30.9068 28.1913 29.6696C26.9541 28.4314 26.2591 26.7527 26.2591 25.0023C26.2591 23.252 26.9541 21.5732 28.1913 20.335C29.4294 19.0978 31.1082 18.4028 32.8585 18.4028C34.6089 18.4028 36.2876 19.0978 37.5258 20.335V20.3339Z" fill="#E8D7CD"/>
</g>
<defs>
<clipPath id="clip0_1_2587">
<rect width="98" height="48" fill="white" transform="translate(0.959229)"/>
</clipPath>
</defs>
</svg>
