<svg width="96" height="96" viewBox="0 0 96 96" fill="none" xmlns="http://www.w3.org/2000/svg">
<circle opacity="0.35" cx="48" cy="48" r="48" fill="#ED7E14"/>
<g clip-path="url(#clip0_1_2694)">
<path fill-rule="evenodd" clip-rule="evenodd" d="M21 20.3984H76V75.3984H21V20.3984ZM63.0452 66.5068C60.4946 66.5068 59.0531 65.1776 57.9463 63.3672L53.7456 65.8078C55.2627 68.8053 58.3633 71.0924 63.1644 71.0924C68.0731 71.0924 71.7283 68.5441 71.7283 63.8897C71.7283 59.5745 69.2488 57.6564 64.8579 55.7703L63.5654 55.218C61.3471 54.2555 60.3869 53.6299 60.3869 52.0784C60.3869 50.8249 61.3494 49.8647 62.8619 49.8647C64.3446 49.8647 65.3002 50.4903 66.1871 52.0784L70.2113 49.4957C68.5085 46.5005 66.1481 45.357 62.8619 45.357C58.2465 45.357 55.2925 48.3086 55.2925 52.1861C55.2925 56.3914 57.7675 58.3828 61.4983 59.9709L62.7908 60.5255C65.149 61.5568 66.5538 62.1847 66.5538 63.9561C66.5538 65.4366 65.1856 66.5068 63.0452 66.5068ZM43.016 66.4724C41.24 66.4724 40.4998 65.2578 39.6885 63.8141L35.481 66.3624C36.7002 68.9428 39.0973 71.0832 43.2337 71.0832C47.8148 71.0832 50.9521 68.6472 50.9521 63.2961V45.6503H45.7844V63.2274C45.7844 65.8101 44.7119 66.4724 43.0138 66.4724H43.016Z" fill="black"/>
</g>
<defs>
<clipPath id="clip0_1_2694">
<rect width="55" height="55" fill="white" transform="translate(21 20.3984)"/>
</clipPath>
</defs>
</svg>
