<svg width="22" height="14" viewBox="0 0 22 14" fill="none" xmlns="http://www.w3.org/2000/svg">
<path fill-rule="evenodd" clip-rule="evenodd" d="M21.5417 7.45831C21.6632 7.33676 21.7315 7.1719 21.7315 7C21.7315 6.8281 21.6632 6.66324 21.5417 6.54169L16.042 1.04198C15.9204 0.920428 15.7556 0.852141 15.5837 0.85214C15.4118 0.85214 15.2469 0.920428 15.1254 1.04198C15.0038 1.16353 14.9355 1.32839 14.9355 1.50029C14.9355 1.67219 15.0038 1.83705 15.1254 1.9586L19.5187 6.35195L0.917776 6.35103C0.745659 6.35103 0.580592 6.41941 0.458887 6.54111C0.337183 6.66282 0.268809 6.82788 0.26881 7C0.268809 7.17212 0.337183 7.33718 0.458887 7.45889C0.580592 7.58059 0.745659 7.64897 0.917775 7.64896L19.5187 7.64805L15.1254 12.0414C15.0038 12.163 14.9355 12.3278 14.9355 12.4997C14.9355 12.6716 15.0038 12.8365 15.1254 12.958C15.2469 13.0796 15.4118 13.1479 15.5837 13.1479C15.7556 13.1479 15.9204 13.0796 16.042 12.958L21.5417 7.45831Z" />
</svg>
