<svg width="25" height="24" viewBox="0 0 25 24" fill="none" xmlns="http://www.w3.org/2000/svg">
<g clip-path="url(#clip0_1_2599)">
<path fill-rule="evenodd" clip-rule="evenodd" d="M0.502319 12.067C0.502319 18.033 4.83532 22.994 10.5023 24V15.333H7.50232V12H10.5023V9.333C10.5023 6.333 12.4353 4.667 15.1693 4.667C16.0353 4.667 16.9693 4.8 17.8353 4.933V8H16.3023C14.8353 8 14.5023 8.733 14.5023 9.667V12H17.7023L17.1693 15.333H14.5023V24C20.1693 22.994 24.5023 18.034 24.5023 12.067C24.5023 5.43 19.1023 0 12.5023 0C5.90232 0 0.502319 5.43 0.502319 12.067Z" />
</g>
<defs>
<clipPath id="clip0_1_2599">
<rect width="24" height="24" fill="white" transform="translate(0.502319)"/>
</clipPath>
</defs>
</svg>
