<svg width="25" height="24" viewBox="0 0 25 24" fill="none" xmlns="http://www.w3.org/2000/svg">
<g clip-path="url(#clip0_1_2597)">
<path fill-rule="evenodd" clip-rule="evenodd" d="M12.5023 0C5.87232 0 0.502319 5.37 0.502319 12C0.502319 17.31 3.93732 21.795 8.70732 23.385C9.30732 23.49 9.53232 23.13 9.53232 22.815C9.53232 22.53 9.51732 21.585 9.51732 20.58C6.50232 21.135 5.72232 19.845 5.48232 19.17C5.34732 18.825 4.76232 17.76 4.25232 17.475C3.83232 17.25 3.23232 16.695 4.23732 16.68C5.18232 16.665 5.85732 17.55 6.08232 17.91C7.16232 19.725 8.88732 19.215 9.57732 18.9C9.68232 18.12 9.99732 17.595 10.3423 17.295C7.67232 16.995 4.88232 15.96 4.88232 11.37C4.88232 10.065 5.34732 8.985 6.11232 8.145C5.99232 7.845 5.57232 6.615 6.23232 4.965C6.23232 4.965 7.23732 4.65 9.53232 6.195C10.4923 5.925 11.5123 5.79 12.5323 5.79C13.5523 5.79 14.5723 5.925 15.5323 6.195C17.8273 4.635 18.8323 4.965 18.8323 4.965C19.4923 6.615 19.0723 7.845 18.9523 8.145C19.7173 8.985 20.1823 10.05 20.1823 11.37C20.1823 15.975 17.3773 16.995 14.7073 17.295C15.1423 17.67 15.5173 18.39 15.5173 19.515C15.5173 21.12 15.5023 22.41 15.5023 22.815C15.5023 23.13 15.7273 23.505 16.3273 23.385C18.7095 22.5807 20.7795 21.0497 22.246 19.0074C23.7125 16.965 24.5016 14.5143 24.5023 12C24.5023 5.37 19.1323 0 12.5023 0Z" />
</g>
<defs>
<clipPath id="clip0_1_2597">
<rect width="24" height="24" fill="white" transform="translate(0.502319)"/>
</clipPath>
</defs>
</svg>
