<svg width="25" height="24" viewBox="0 0 25 24" fill="none" xmlns="http://www.w3.org/2000/svg">
<path fill-rule="evenodd" clip-rule="evenodd" d="M7.96732 1.066C9.14032 1.012 9.51432 1 12.5023 1C15.4903 1 15.8643 1.013 17.0363 1.066C18.2083 1.119 19.0083 1.306 19.7083 1.577C20.4413 1.854 21.1063 2.287 21.6563 2.847C22.2163 3.396 22.6483 4.06 22.9243 4.794C23.1963 5.494 23.3823 6.294 23.4363 7.464C23.4903 8.639 23.5023 9.013 23.5023 12C23.5023 14.988 23.4893 15.362 23.4363 16.535C23.3833 17.705 23.1963 18.505 22.9243 19.205C22.6483 19.9391 22.2156 20.6042 21.6563 21.154C21.1063 21.714 20.4413 22.146 19.7083 22.422C19.0083 22.694 18.2083 22.88 17.0383 22.934C15.8643 22.988 15.4903 23 12.5023 23C9.51432 23 9.14032 22.987 7.96732 22.934C6.79732 22.881 5.99732 22.694 5.29732 22.422C4.56324 22.146 3.89814 21.7133 3.34832 21.154C2.7887 20.6047 2.35563 19.9399 2.07932 19.206C1.80832 18.506 1.62232 17.706 1.56832 16.536C1.51432 15.361 1.50232 14.987 1.50232 12C1.50232 9.012 1.51532 8.638 1.56832 7.466C1.62132 6.294 1.80832 5.494 2.07932 4.794C2.35604 4.06008 2.78944 3.39531 3.34932 2.846C3.89836 2.2865 4.56279 1.85344 5.29632 1.577C5.99632 1.306 6.79632 1.12 7.96632 1.066H7.96732ZM16.9473 3.046C15.7873 2.993 15.4393 2.982 12.5023 2.982C9.56532 2.982 9.21732 2.993 8.05732 3.046C6.98432 3.095 6.40232 3.274 6.01432 3.425C5.50132 3.625 5.13432 3.862 4.74932 4.247C4.38436 4.60205 4.1035 5.03428 3.92732 5.512C3.77632 5.9 3.59732 6.482 3.54832 7.555C3.49532 8.715 3.48432 9.063 3.48432 12C3.48432 14.937 3.49532 15.285 3.54832 16.445C3.59732 17.518 3.77632 18.1 3.92732 18.488C4.10332 18.965 4.38432 19.398 4.74932 19.753C5.10432 20.118 5.53732 20.399 6.01432 20.575C6.40232 20.726 6.98432 20.905 8.05732 20.954C9.21732 21.007 9.56432 21.018 12.5023 21.018C15.4403 21.018 15.7873 21.007 16.9473 20.954C18.0203 20.905 18.6023 20.726 18.9903 20.575C19.5033 20.375 19.8703 20.138 20.2553 19.753C20.6203 19.398 20.9013 18.965 21.0773 18.488C21.2283 18.1 21.4073 17.518 21.4563 16.445C21.5093 15.285 21.5203 14.937 21.5203 12C21.5203 9.063 21.5093 8.715 21.4563 7.555C21.4073 6.482 21.2283 5.9 21.0773 5.512C20.8773 4.999 20.6403 4.632 20.2553 4.247C19.9002 3.88207 19.468 3.60121 18.9903 3.425C18.6023 3.274 18.0203 3.095 16.9473 3.046ZM11.0973 15.391C11.882 15.7176 12.7557 15.7617 13.5692 15.5157C14.3828 15.2697 15.0857 14.7489 15.5579 14.0422C16.0301 13.3356 16.2424 12.4869 16.1584 11.6411C16.0744 10.7953 15.6993 10.005 15.0973 9.405C14.7136 9.02148 14.2495 8.72781 13.7387 8.54515C13.2278 8.36248 12.6827 8.29536 12.1428 8.34862C11.6029 8.40187 11.0815 8.57418 10.6161 8.85313C10.1508 9.13208 9.75306 9.51074 9.45162 9.96185C9.15018 10.413 8.95251 10.9253 8.87284 11.462C8.79316 11.9986 8.83347 12.5463 8.99086 13.0655C9.14825 13.5847 9.4188 14.0626 9.78304 14.4647C10.1473 14.8668 10.5961 15.1832 11.0973 15.391ZM8.50432 8.002C9.02934 7.47697 9.65264 7.0605 10.3386 6.77636C11.0246 6.49222 11.7598 6.34597 12.5023 6.34597C13.2448 6.34597 13.98 6.49222 14.666 6.77636C15.352 7.0605 15.9753 7.47697 16.5003 8.002C17.0253 8.52702 17.4418 9.15032 17.726 9.8363C18.0101 10.5223 18.1563 11.2575 18.1563 12C18.1563 12.7425 18.0101 13.4777 17.726 14.1637C17.4418 14.8497 17.0253 15.473 16.5003 15.998C15.44 17.0583 14.0019 17.654 12.5023 17.654C11.0028 17.654 9.56465 17.0583 8.50432 15.998C7.44398 14.9377 6.84829 13.4995 6.84829 12C6.84829 10.5005 7.44398 9.06234 8.50432 8.002ZM19.4103 7.188C19.5404 7.06527 19.6446 6.91768 19.7166 6.75397C19.7887 6.59027 19.8271 6.41377 19.8297 6.23493C19.8323 6.05609 19.799 5.87855 19.7318 5.71281C19.6646 5.54707 19.5648 5.39651 19.4383 5.27004C19.3118 5.14357 19.1612 5.04376 18.9955 4.97652C18.8298 4.90928 18.6522 4.87598 18.4734 4.87858C18.2945 4.88119 18.1181 4.91965 17.9543 4.9917C17.7906 5.06374 17.643 5.1679 17.5203 5.298C17.2816 5.55103 17.151 5.88712 17.156 6.23493C17.1611 6.58274 17.3015 6.91488 17.5475 7.16084C17.7934 7.40681 18.1256 7.54723 18.4734 7.5523C18.8212 7.55737 19.1573 7.42669 19.4103 7.188Z" />
</svg>
