<svg width="25" height="24" viewBox="0 0 25 24" fill="none" xmlns="http://www.w3.org/2000/svg">
<path fill-rule="evenodd" clip-rule="evenodd" d="M1.50232 2.838C1.50232 2.35053 1.69597 1.88303 2.04066 1.53834C2.38535 1.19365 2.85285 1 3.34032 1H21.6623C21.9039 0.999608 22.1432 1.04687 22.3665 1.13907C22.5897 1.23127 22.7927 1.36661 22.9636 1.53734C23.1345 1.70807 23.27 1.91083 23.3625 2.13401C23.4549 2.3572 23.5025 2.59643 23.5023 2.838V21.16C23.5026 21.4016 23.4552 21.6409 23.3629 21.8642C23.2706 22.0875 23.1351 22.2904 22.9643 22.4613C22.7935 22.6322 22.5907 22.7678 22.3675 22.8602C22.1442 22.9526 21.9049 23.0001 21.6633 23H3.34032C3.09887 23 2.85978 22.9524 2.63672 22.86C2.41365 22.7676 2.21099 22.6321 2.0403 22.4613C1.86962 22.2905 1.73425 22.0878 1.64194 21.8647C1.54963 21.6416 1.50219 21.4025 1.50232 21.161V2.838ZM10.2103 9.388H13.1893V10.884C13.6193 10.024 14.7193 9.25 16.3723 9.25C19.5413 9.25 20.2923 10.963 20.2923 14.106V19.928H17.0853V14.822C17.0853 13.032 16.6553 12.022 15.5633 12.022C14.0483 12.022 13.4183 13.111 13.4183 14.822V19.928H10.2103V9.388ZM4.71032 19.791H7.91832V9.25H4.71032V19.79V19.791ZM8.37732 5.812C8.38337 6.08668 8.33449 6.35979 8.23356 6.61532C8.13263 6.87084 7.98167 7.10364 7.78955 7.30003C7.59743 7.49643 7.36802 7.65248 7.11477 7.75901C6.86153 7.86554 6.58956 7.92042 6.31482 7.92042C6.04008 7.92042 5.76811 7.86554 5.51486 7.75901C5.26162 7.65248 5.03221 7.49643 4.84009 7.30003C4.64797 7.10364 4.49701 6.87084 4.39608 6.61532C4.29515 6.35979 4.24627 6.08668 4.25232 5.812C4.26419 5.27286 4.4867 4.75979 4.87221 4.38269C5.25771 4.00558 5.77554 3.79442 6.31482 3.79442C6.8541 3.79442 7.37193 4.00558 7.75743 4.38269C8.14293 4.75979 8.36545 5.27286 8.37732 5.812Z" fill="#FF8A8A"/>
</svg>
