<svg width="34" height="34" viewBox="0 0 34 34" fill="none" xmlns="http://www.w3.org/2000/svg">
<path d="M14.1666 25.4997C16.6811 25.4992 19.1232 24.6574 21.104 23.1083L27.3317 29.336L29.3348 27.3328L23.1072 21.1052C24.657 19.1242 25.4993 16.6815 25.4999 14.1663C25.4999 7.91742 20.4155 2.83301 14.1666 2.83301C7.91767 2.83301 2.83325 7.91742 2.83325 14.1663C2.83325 20.4153 7.91767 25.4997 14.1666 25.4997ZM14.1666 5.66634C18.8543 5.66634 22.6666 9.47859 22.6666 14.1663C22.6666 18.8541 18.8543 22.6663 14.1666 22.6663C9.47884 22.6663 5.66659 18.8541 5.66659 14.1663C5.66659 9.47859 9.47884 5.66634 14.1666 5.66634Z" fill="black"/>
</svg>
