<svg width="20" height="21" viewBox="0 0 20 21" fill="none" xmlns="http://www.w3.org/2000/svg">
<path d="M18.75 7.575L10.225 4.25H9.775L1.25 7.575V15.5H2.5V9.25L5.3875 10.375C4.74966 11.2833 4.40506 12.3651 4.4 13.475C4.3875 13.6125 4.3875 13.75 4.4 13.8875V14.025L4.75 14.525L9.725 16.75H10.2375L15.1625 14.4875L15.5125 13.9875V13.4375C15.5054 12.3337 15.1656 11.2577 14.5375 10.35L18.75 8.7125V7.575ZM14.35 13.425V13.5125L10 15.5L5.625 13.5C5.61915 13.4753 5.61915 13.4497 5.625 13.425C5.6318 12.4616 5.96195 11.5284 6.5625 10.775L9.7875 12.025H10.2375L13.4375 10.775C14.0326 11.5297 14.3542 12.4639 14.35 13.425ZM10 10.8125L3.15 8.15L10 5.5L16.85 8.175L10 10.8125Z" fill="#6B6B6B"/>
</svg>
