<svg width="20" height="21" viewBox="0 0 20 21" fill="none" xmlns="http://www.w3.org/2000/svg">
<g clip-path="url(#clip0_1_2046)">
<path d="M8.71425 5.6339C8.68902 5.62642 8.66256 5.62407 8.63641 5.62696C8.61027 5.62986 8.58496 5.63794 8.56199 5.65075C8.53901 5.66356 8.51882 5.68083 8.50261 5.70155C8.4864 5.72227 8.47449 5.74601 8.46758 5.7714C7.80091 8.09223 10.8167 10.4206 12.8126 11.9614C13.3567 12.3814 13.8259 12.7439 14.1384 13.0381C15.5926 14.4064 16.2751 15.4139 16.4159 15.6864C16.4368 15.7269 16.4709 15.7591 16.5126 15.7776C16.5543 15.7961 16.601 15.7998 16.6451 15.7881C16.6842 15.7772 20.5834 14.7047 19.9234 11.9764C19.9191 11.959 19.9127 11.9422 19.9042 11.9264L15.1701 3.3389L15.7751 0.745563C15.7824 0.714273 15.7821 0.681679 15.7741 0.650542C15.7662 0.619405 15.7508 0.590641 15.7294 0.566686C15.708 0.542731 15.6811 0.52429 15.6511 0.512925C15.621 0.50156 15.5887 0.497606 15.5567 0.501396C14.1401 0.668896 12.9609 0.863896 11.8067 1.6889C7.77008 1.41973 4.54175 2.4389 2.46258 4.63806C0.278413 6.94723 -0.20492 10.0956 0.0709129 12.2731C0.706746 16.9856 4.39675 19.4656 7.63841 20.2164C8.46591 20.4072 9.28341 20.4997 10.0742 20.4997C12.8609 20.4997 15.3217 19.3489 16.6959 17.2914C16.7234 17.2499 16.7344 17.1996 16.7268 17.1504C16.7192 17.1011 16.6935 17.0565 16.6547 17.0253C16.6159 16.994 16.5669 16.9783 16.5172 16.9813C16.4675 16.9843 16.4207 17.0057 16.3859 17.0414C13.5434 19.9806 8.88425 20.4864 5.30591 18.2447C1.56841 15.9031 0.13758 11.2364 2.04758 7.62056C3.95091 4.01723 7.33425 2.46806 11.5734 3.25806C11.6201 3.2664 11.6692 3.25806 11.7109 3.2339L11.9901 3.06973C12.7617 2.61473 13.6242 2.10556 14.3842 2.0039L13.8059 3.66473C13.7964 3.69233 13.7929 3.72166 13.7958 3.75072C13.7987 3.77978 13.8078 3.80786 13.8226 3.83306L18.8909 12.3264C18.7301 14.0164 17.4692 14.4147 17.0359 14.5022C16.7967 13.9647 16.3576 13.3656 15.1142 12.1664C14.7626 11.8272 14.1059 11.3822 13.3442 10.8664C11.3742 9.53223 8.39675 7.5164 8.85175 5.87973C8.85886 5.85456 8.86095 5.82823 8.85789 5.80226C8.85483 5.77628 8.84668 5.75116 8.83391 5.72833C8.82114 5.70551 8.804 5.68542 8.78347 5.66921C8.76294 5.65301 8.73942 5.64101 8.71425 5.6339Z" fill="#6B6B6B"/>
</g>
<defs>
<clipPath id="clip0_1_2046">
<rect width="20" height="20" fill="white" transform="translate(0 0.5)"/>
</clipPath>
</defs>
</svg>
