<svg width="20" height="21" viewBox="0 0 20 21" fill="none" xmlns="http://www.w3.org/2000/svg">
<path d="M6.25 10.5H13.75V11.75H6.25V10.5ZM6.25 6.75H13.75V8H6.25V6.75Z" fill="#6B6B6B"/>
<path d="M10 19.25L6.14 17.1919C5.03959 16.6064 4.11936 15.7324 3.47808 14.6636C2.8368 13.5947 2.49868 12.3715 2.5 11.125V3C2.50033 2.66858 2.63214 2.35083 2.86649 2.11648C3.10083 1.88213 3.41858 1.75033 3.75 1.75H16.25C16.5814 1.75033 16.8992 1.88213 17.1335 2.11648C17.3679 2.35083 17.4997 2.66858 17.5 3V11.125C17.5013 12.3715 17.1632 13.5947 16.5219 14.6636C15.8806 15.7324 14.9604 16.6064 13.86 17.1919L10 19.25ZM3.75 3V11.125C3.74897 12.1449 4.02569 13.1458 4.55048 14.0203C5.07527 14.8948 5.8283 15.6099 6.72875 16.0887L10 17.8331L13.2713 16.0894C14.1718 15.6104 14.9249 14.8953 15.4497 14.0206C15.9745 13.146 16.2512 12.145 16.25 11.125V3H3.75Z" fill="#6B6B6B"/>
</svg>
