<svg width="20" height="21" viewBox="0 0 20 21" fill="none" xmlns="http://www.w3.org/2000/svg">
<path d="M13.5 3.5C13.2034 3.49994 12.9105 3.56585 12.6425 3.69296C12.3745 3.82007 12.1381 4.0052 11.9505 4.23493C11.7629 4.46466 11.6287 4.73325 11.5577 5.02123C11.4867 5.30921 11.4807 5.60939 11.54 5.9C11.5561 5.97697 11.5539 6.05667 11.5334 6.13261C11.513 6.20855 11.4749 6.27859 11.4223 6.33705C11.3697 6.39551 11.304 6.44073 11.2306 6.46905C11.1573 6.49736 11.0782 6.50796 11 6.5C10.67 6.5 10.358 6.58 10.084 6.722C9.93415 6.42107 9.74701 6.14019 9.527 5.886C9.8291 5.71516 10.1587 5.5984 10.501 5.541V5.5C10.501 5.10603 10.5786 4.71593 10.7294 4.35195C10.8801 3.98797 11.1011 3.65726 11.3797 3.37868C11.6583 3.1001 11.989 2.87913 12.353 2.72836C12.7169 2.5776 13.107 2.5 13.501 2.5C13.895 2.5 14.2851 2.5776 14.6491 2.72836C15.013 2.87913 15.3437 3.1001 15.6223 3.37868C15.9009 3.65726 16.1219 3.98797 16.2726 4.35195C16.4234 4.71593 16.501 5.10603 16.501 5.5L16.5 5.541C16.8929 5.60923 17.2682 5.75509 17.604 5.97005C17.9398 6.18502 18.2294 6.46477 18.4559 6.79296C18.6823 7.12115 18.8411 7.49119 18.9229 7.88145C19.0047 8.27171 19.0078 8.67436 18.9322 9.06586C18.8565 9.45735 18.7036 9.82984 18.4824 10.1615C18.2611 10.4933 17.9759 10.7775 17.6435 10.9977C17.3111 11.218 16.9381 11.3697 16.5464 11.4441C16.1546 11.5185 15.752 11.514 15.362 11.431L15.582 12.338C15.6444 12.5955 15.6475 12.8638 15.591 13.1227C15.5346 13.3816 15.4201 13.6243 15.2562 13.8325C15.0923 14.0407 14.8833 14.2089 14.6449 14.3246C14.4065 14.4402 14.145 14.5002 13.88 14.5H13.118C12.853 14.5 12.5915 14.4397 12.3531 14.3238C12.1148 14.208 11.9059 14.0395 11.7422 13.8311C11.5785 13.6227 11.4642 13.3798 11.4081 13.1208C11.3519 12.8618 11.3553 12.5935 11.418 12.336L11.868 10.484C11.8835 10.4202 11.9114 10.36 11.9502 10.307C11.9889 10.254 12.0377 10.2091 12.0938 10.1749C12.1499 10.1407 12.2121 10.1179 12.277 10.1078C12.3419 10.0977 12.4082 10.1005 12.472 10.116C12.5358 10.1315 12.596 10.1594 12.649 10.1982C12.702 10.2369 12.7469 10.2857 12.7811 10.3418C12.8153 10.3979 12.8381 10.4601 12.8482 10.525C12.8583 10.5899 12.8555 10.6562 12.84 10.72L12.39 12.573C12.3632 12.6833 12.3618 12.7982 12.3859 12.9091C12.41 13.02 12.4589 13.124 12.529 13.2132C12.5991 13.3025 12.6885 13.3747 12.7905 13.4243C12.8925 13.474 13.0045 13.4999 13.118 13.5H13.88C13.9936 13.5002 14.1059 13.4745 14.2081 13.425C14.3104 13.3754 14.4001 13.3033 14.4704 13.214C14.5407 13.1247 14.5898 13.0206 14.614 12.9096C14.6382 12.7985 14.6368 12.6834 14.61 12.573L14.16 10.719C14.1367 10.6219 14.143 10.5201 14.1781 10.4266C14.2132 10.3331 14.2755 10.2523 14.3569 10.1945C14.4383 10.1367 14.5352 10.1047 14.635 10.1024C14.7349 10.1002 14.8331 10.1279 14.917 10.182C15.1798 10.3509 15.4786 10.456 15.7893 10.4887C16.1 10.5213 16.414 10.4808 16.7063 10.3702C16.9985 10.2596 17.2607 10.0822 17.472 9.85198C17.6832 9.6218 17.8376 9.34533 17.9228 9.04472C18.0079 8.74412 18.0215 8.42775 17.9623 8.12096C17.9032 7.81418 17.773 7.52553 17.5821 7.27814C17.3913 7.03074 17.1452 6.8315 16.8635 6.69637C16.5818 6.56124 16.2724 6.49399 15.96 6.5C15.885 6.50152 15.8106 6.48615 15.7424 6.45502C15.6742 6.4239 15.6138 6.37782 15.5658 6.32019C15.5177 6.26257 15.4833 6.19489 15.465 6.12215C15.4467 6.04941 15.445 5.97349 15.46 5.9C15.5193 5.60939 15.5133 5.30921 15.4423 5.02123C15.3713 4.73325 15.2371 4.46466 15.0495 4.23493C14.8619 4.0052 14.6255 3.82007 14.3575 3.69296C14.0895 3.56585 13.7966 3.49994 13.5 3.5ZM4.5 8.5C4.5 8.1831 4.57531 7.87073 4.71971 7.58864C4.86412 7.30655 5.07349 7.06281 5.33058 6.87752C5.58767 6.69222 5.8851 6.57067 6.19838 6.52287C6.51166 6.47508 6.83181 6.50242 7.13246 6.60263C7.4331 6.70285 7.70562 6.87307 7.92757 7.09927C8.14952 7.32547 8.31454 7.60118 8.40903 7.90367C8.50352 8.20615 8.52477 8.52677 8.47105 8.83908C8.41732 9.1514 8.29014 9.44648 8.1 9.7C8.04429 9.77428 8.01036 9.86262 8.00202 9.9551C7.99368 10.0476 8.01126 10.1406 8.05279 10.2236C8.09431 10.3067 8.15815 10.3765 8.23713 10.4253C8.31612 10.4741 8.40714 10.5 8.5 10.5H9C9.13261 10.5 9.25979 10.5527 9.35355 10.6464C9.44732 10.7402 9.5 10.8674 9.5 11C9.5 11.1326 9.44732 11.2598 9.35355 11.3536C9.25979 11.4473 9.13261 11.5 9 11.5H7.893C7.82231 11.5001 7.75243 11.5151 7.68798 11.5441C7.62353 11.5732 7.56596 11.6156 7.51909 11.6685C7.47222 11.7214 7.4371 11.7837 7.41606 11.8511C7.39501 11.9186 7.38852 11.9898 7.397 12.06C7.699 14.53 9.006 15.948 9.737 16.56C9.912 16.706 10 16.89 10 17.049C10 17.1686 9.95248 17.2833 9.86791 17.3679C9.78333 17.4525 9.66861 17.5 9.549 17.5H3.45C3.33056 17.4997 3.2161 17.4521 3.13174 17.3676C3.04738 17.283 3 17.1684 3 17.049C3 16.889 3.088 16.706 3.262 16.56C3.994 15.948 5.302 14.53 5.603 12.06C5.61148 11.9898 5.60499 11.9186 5.58394 11.8511C5.5629 11.7837 5.52778 11.7214 5.48091 11.6685C5.43404 11.6156 5.37647 11.5732 5.31202 11.5441C5.24757 11.5151 5.17769 11.5001 5.107 11.5H4C3.86739 11.5 3.74021 11.4473 3.64645 11.3536C3.55268 11.2598 3.5 11.1326 3.5 11C3.5 10.8674 3.55268 10.7402 3.64645 10.6464C3.74021 10.5527 3.86739 10.5 4 10.5H4.5C4.59286 10.5 4.68388 10.4741 4.76287 10.4253C4.84185 10.3765 4.90569 10.3067 4.94721 10.2236C4.98874 10.1406 5.00632 10.0476 4.99798 9.9551C4.98964 9.86262 4.95571 9.77428 4.9 9.7C4.63964 9.35418 4.4992 8.93287 4.5 8.5ZM6.5 5.5C6.01693 5.49987 5.54098 5.61639 5.1126 5.83966C4.68423 6.06293 4.31611 6.38634 4.03953 6.7824C3.76296 7.17845 3.58612 7.63544 3.52405 8.1145C3.46197 8.59357 3.5165 9.08053 3.683 9.534C3.32126 9.61236 3.00127 9.82169 2.78455 10.1217C2.56784 10.4218 2.46972 10.7914 2.50905 11.1594C2.54839 11.5274 2.7224 11.8679 2.99763 12.1154C3.27286 12.3629 3.62987 12.4999 4 12.5H4.52C4.148 14.298 3.167 15.336 2.62 15.793C2.274 16.083 2 16.529 2 17.049C2 17.85 2.65 18.5 3.451 18.5H9.55C10.35 18.5 11 17.85 11 17.049C11 16.529 10.726 16.083 10.38 15.793C9.833 15.336 8.852 14.298 8.48 12.5H9C9.37013 12.4999 9.72714 12.3629 10.0024 12.1154C10.2776 11.8679 10.4516 11.5274 10.4909 11.1594C10.5303 10.7914 10.4322 10.4218 10.2154 10.1217C9.99873 9.82169 9.67874 9.61236 9.317 9.534C9.4835 9.08053 9.53803 8.59357 9.47595 8.1145C9.41388 7.63544 9.23704 7.17845 8.96047 6.7824C8.68389 6.38634 8.31577 6.06293 7.8874 5.83966C7.45902 5.61639 6.98307 5.49987 6.5 5.5Z" fill="#6B6B6B"/>
</svg>
