<svg width="20" height="21" viewBox="0 0 20 21" fill="none" xmlns="http://www.w3.org/2000/svg">
<g clip-path="url(#clip0_1_2050)">
<path d="M15.625 3C14.7962 3 14.0013 3.32924 13.4153 3.91529C12.8292 4.50134 12.5 5.2962 12.5 6.125C12.5 6.29076 12.4342 6.44973 12.3169 6.56694C12.1997 6.68415 12.0408 6.75 11.875 6.75C11.7092 6.75 11.5503 6.68415 11.4331 6.56694C11.3158 6.44973 11.25 6.29076 11.25 6.125C11.25 5.25971 11.5066 4.41385 11.9873 3.69438C12.4681 2.97492 13.1513 2.41416 13.9508 2.08303C14.7502 1.7519 15.6299 1.66526 16.4785 1.83407C17.3272 2.00288 18.1067 2.41956 18.7186 3.03141C19.3304 3.64326 19.7471 4.42281 19.9159 5.27148C20.0847 6.12015 19.9981 6.99982 19.667 7.79924C19.3358 8.59867 18.7751 9.28195 18.0556 9.76268C17.3362 10.2434 16.4903 10.5 15.625 10.5H0.625C0.45924 10.5 0.300269 10.4342 0.183058 10.3169C0.065848 10.1997 0 10.0408 0 9.875C0 9.70924 0.065848 9.55027 0.183058 9.43306C0.300269 9.31585 0.45924 9.25 0.625 9.25H15.625C16.4538 9.25 17.2487 8.92076 17.8347 8.33471C18.4208 7.74866 18.75 6.9538 18.75 6.125C18.75 5.2962 18.4208 4.50134 17.8347 3.91529C17.2487 3.32924 16.4538 3 15.625 3ZM6.875 4.25C6.54348 4.25 6.22554 4.3817 5.99112 4.61612C5.7567 4.85054 5.625 5.16848 5.625 5.5C5.625 5.66576 5.55915 5.82473 5.44194 5.94194C5.32473 6.05915 5.16576 6.125 5 6.125C4.83424 6.125 4.67527 6.05915 4.55806 5.94194C4.44085 5.82473 4.375 5.66576 4.375 5.5C4.375 5.00555 4.52162 4.5222 4.79633 4.11108C5.07103 3.69995 5.46148 3.37952 5.91829 3.1903C6.37511 3.00108 6.87777 2.95158 7.36273 3.04804C7.84768 3.1445 8.29314 3.3826 8.64277 3.73223C8.9924 4.08187 9.2305 4.52732 9.32696 5.01228C9.42343 5.49723 9.37392 5.9999 9.1847 6.45671C8.99548 6.91353 8.67505 7.30397 8.26393 7.57868C7.8528 7.85338 7.36945 8 6.875 8H0.625C0.45924 8 0.300269 7.93415 0.183058 7.81694C0.065848 7.69973 0 7.54076 0 7.375C0 7.20924 0.065848 7.05027 0.183058 6.93306C0.300269 6.81585 0.45924 6.75 0.625 6.75H6.875C7.20652 6.75 7.52446 6.61831 7.75888 6.38388C7.9933 6.14946 8.125 5.83152 8.125 5.5C8.125 5.16848 7.9933 4.85054 7.75888 4.61612C7.52446 4.3817 7.20652 4.25 6.875 4.25ZM0 12.375C0 12.2092 0.065848 12.0503 0.183058 11.9331C0.300269 11.8159 0.45924 11.75 0.625 11.75H13.1775C13.9192 11.75 14.6442 11.9699 15.2609 12.382C15.8776 12.794 16.3582 13.3797 16.642 14.0649C16.9259 14.7502 17.0001 15.5042 16.8554 16.2316C16.7108 16.959 16.3536 17.6272 15.8292 18.1517C15.3047 18.6761 14.6365 19.0333 13.9091 19.1779C13.1817 19.3226 12.4277 19.2484 11.7424 18.9646C11.0572 18.6807 10.4715 18.2001 10.0595 17.5834C9.64743 16.9667 9.4275 16.2417 9.4275 15.5C9.4275 15.3342 9.49335 15.1753 9.61056 15.0581C9.72777 14.9409 9.88674 14.875 10.0525 14.875C10.2183 14.875 10.3772 14.9409 10.4944 15.0581C10.6117 15.1753 10.6775 15.3342 10.6775 15.5C10.6775 15.9945 10.8241 16.4778 11.0988 16.8889C11.3735 17.3001 11.764 17.6205 12.2208 17.8097C12.6776 17.9989 13.1803 18.0484 13.6652 17.952C14.1502 17.8555 14.5956 17.6174 14.9453 17.2678C15.2949 16.9181 15.533 16.4727 15.6295 15.9877C15.7259 15.5028 15.6764 15.0001 15.4872 14.5433C15.298 14.0865 14.9775 13.696 14.5664 13.4213C14.1553 13.1466 13.672 13 13.1775 13H0.625C0.45924 13 0.300269 12.9342 0.183058 12.8169C0.065848 12.6997 0 12.5408 0 12.375Z" fill="#6B6B6B"/>
</g>
<defs>
<clipPath id="clip0_1_2050">
<rect width="20" height="20" fill="white" transform="translate(0 0.5)"/>
</clipPath>
</defs>
</svg>
